<?xml version="1.0" standalone="no"?>
<!DOCTYPE svg PUBLIC "-//W3C//DTD SVG 20010904//EN"
 "http://www.w3.org/TR/2001/REC-SVG-20010904/DTD/svg10.dtd">
<svg version="1.0" xmlns="http://www.w3.org/2000/svg"
 width="600.000000pt" height="600.000000pt" viewBox="0 0 600.000000 600.000000"
 preserveAspectRatio="xMidYMid meet">
<metadata>
Created by potrace 1.11, written by Peter Selinger 2001-2013
</metadata>
<g transform="translate(0.000000,600.000000) scale(0.100000,-0.100000)"
fill="#000000" stroke="none">
<path d="M2720 5958 c-555 -51 -1078 -251 -1517 -580 -574 -429 -979 -1052
-1132 -1743 -51 -232 -65 -366 -65 -650 0 -284 14 -418 65 -650 211 -953 892
-1754 1800 -2119 232 -93 429 -146 699 -187 123 -19 185 -23 415 -23 283 0
417 14 650 65 875 193 1632 789 2025 1594 92 188 136 299 184 462 145 489 166
995 60 1482 -298 1384 -1529 2372 -2939 2360 -82 -1 -193 -6 -245 -11z m505
-78 c1503 -128 2665 -1389 2665 -2895 0 -1242 -796 -2350 -1975 -2752 -882
-300 -1869 -152 -2625 396 -1008 730 -1441 1997 -1088 3185 140 474 409 914
769 1261 602 579 1429 874 2254 805z"/>
<path d="M2933 5745 c-10 -17 -14 -18 -38 -7 -62 28 -128 6 -167 -55 -19 -32
-23 -51 -23 -123 0 -97 20 -147 77 -195 28 -23 39 -27 79 -23 27 3 59 12 73
22 23 15 26 23 26 76 0 46 4 61 18 69 13 8 -2 10 -56 11 -46 0 -71 -4 -67 -10
3 -5 12 -10 19 -10 19 0 32 -106 16 -126 -17 -20 -54 -17 -75 6 -40 44 -59
236 -31 305 31 74 93 65 136 -20 l25 -50 3 38 c2 20 2 54 0 75 -3 33 -4 35
-15 17z"/>
<path d="M3203 5722 c17 -18 17 -30 7 -168 -13 -178 -16 -194 -36 -194 -8 0
-13 -4 -10 -9 3 -4 40 -11 81 -14 88 -8 125 5 150 53 27 52 16 104 -29 142
-18 15 -18 17 -4 18 27 0 58 49 58 90 0 61 -37 83 -160 95 -75 7 -75 7 -57
-13z m148 -39 c11 -30 4 -90 -13 -110 -6 -7 -21 -13 -34 -13 -21 0 -24 5 -24
38 0 20 3 54 6 75 6 31 11 37 31 37 16 0 27 -8 34 -27z m-29 -160 c35 -31 19
-140 -24 -167 -32 -20 -41 5 -33 98 8 92 18 104 57 69z"/>
<path d="M2540 5710 c-13 -8 -13 -10 2 -10 9 0 20 -6 25 -12 7 -13 34 -200 29
-205 -1 -2 -17 17 -34 41 -18 24 -55 72 -83 106 -51 61 -52 61 -93 54 -23 -3
-43 -8 -45 -10 -3 -2 6 -15 19 -29 17 -18 28 -53 46 -147 13 -68 25 -135 28
-150 3 -17 0 -33 -10 -43 -14 -13 -14 -15 3 -15 29 0 63 12 63 21 0 5 -6 9
-14 9 -8 0 -17 8 -20 18 -11 36 -47 244 -43 248 4 5 125 -144 177 -219 19 -26
37 -47 40 -47 3 0 -4 82 -16 183 l-22 182 20 18 c20 17 19 17 -18 17 -22 0
-46 -5 -54 -10z"/>
<path d="M3558 5513 c-44 -93 -87 -176 -95 -185 -14 -15 -12 -18 18 -26 41
-11 44 -9 28 17 -11 17 -10 26 4 57 15 30 22 35 40 30 12 -3 29 -6 38 -6 11 0
19 -12 23 -35 9 -44 0 -75 -21 -75 -28 0 -7 -11 48 -25 56 -15 68 -13 52 7 -6
7 -13 74 -17 148 -9 185 -17 260 -28 260 -5 0 -46 -75 -90 -167z m51 -28 l2
-66 -28 7 c-15 4 -31 8 -34 10 -7 4 43 114 52 114 3 0 7 -29 8 -65z"/>
<path d="M2233 5648 c-34 -11 -45 -28 -18 -28 20 0 29 -23 60 -159 29 -123 27
-174 -5 -191 -52 -28 -71 -1 -116 158 -36 126 -41 168 -21 175 6 2 9 7 6 11
-7 8 -129 -35 -129 -46 0 -4 7 -8 16 -8 18 0 33 -35 70 -164 35 -124 66 -166
125 -166 29 0 47 7 64 25 33 32 33 94 -1 248 -25 113 -26 119 -9 137 21 23 11
25 -42 8z"/>
<path d="M3840 5610 c0 -5 5 -12 10 -15 17 -10 12 -40 -32 -192 -32 -111 -46
-147 -60 -151 -31 -8 -20 -16 56 -41 90 -29 117 -24 172 34 92 96 100 269 13
315 -40 22 -159 59 -159 50z m144 -72 c23 -32 20 -85 -9 -176 -34 -107 -80
-161 -122 -145 -20 8 -17 25 34 190 37 122 50 153 64 153 10 0 25 -10 33 -22z"/>
<path d="M1772 5474 c-47 -47 -58 -93 -42 -170 21 -98 105 -194 172 -194 42 0
85 26 105 63 25 47 22 149 -6 213 -33 77 -78 116 -140 122 -48 4 -53 3 -89
-34z m103 -11 c33 -34 46 -59 75 -146 36 -111 28 -187 -22 -187 -30 0 -67 44
-105 127 -44 95 -55 183 -28 213 25 27 47 25 80 -7z"/>
<path d="M4175 5293 c-64 -82 -123 -149 -131 -151 -23 -6 -16 -17 21 -35 35
-16 46 -12 24 10 -9 9 -6 21 11 47 24 41 29 42 70 21 23 -12 30 -22 30 -46 0
-40 -18 -72 -36 -65 -8 3 -14 2 -14 -2 0 -6 93 -62 103 -62 2 0 3 15 3 33 0
17 12 111 27 208 15 96 27 178 27 182 0 24 -32 -10 -135 -140z m51 -3 c-3 -16
-9 -43 -12 -60 -3 -16 -8 -30 -10 -30 -5 0 -46 20 -52 26 -6 4 62 93 71 94 5
0 6 -13 3 -30z"/>
<path d="M1565 5367 c-40 -22 -40 -22 -12 -25 15 -2 27 -4 28 -5 4 -10 13
-167 9 -167 -3 0 -32 25 -65 54 -53 47 -58 55 -46 70 26 31 5 25 -58 -17 -62
-40 -63 -41 -37 -48 15 -4 62 -36 106 -71 87 -70 139 -153 125 -198 l-7 -24
33 23 c19 12 44 27 57 33 26 13 29 30 5 26 -13 -2 -28 16 -55 67 l-38 70 3
118 c1 64 0 117 -3 117 -3 -1 -23 -11 -45 -23z"/>
<path d="M4470 5326 c0 -3 5 -14 11 -25 10 -15 -1 -42 -66 -164 -58 -108 -84
-147 -99 -149 -16 -2 -1 -17 64 -62 47 -32 90 -60 95 -62 6 -2 27 19 48 46 21
28 36 50 33 50 -3 0 -22 -11 -42 -25 -20 -14 -43 -25 -50 -25 -23 0 -64 19
-70 33 -5 13 123 254 154 289 11 13 19 15 33 7 35 -18 20 8 -18 33 -83 54 -93
60 -93 54z"/>
<path d="M2830 5244 c-19 -2 -78 -9 -130 -15 -315 -35 -678 -168 -950 -348
-553 -365 -903 -912 -1006 -1574 -25 -154 -25 -489 -1 -642 80 -507 292 -929
643 -1279 346 -347 779 -565 1274 -642 159 -25 491 -25 650 0 1003 156 1761
914 1916 1916 25 159 25 491 0 650 -77 499 -298 936 -653 1287 -339 336 -789
559 -1265 628 -101 15 -409 27 -478 19z m398 -50 l22 -6 0 -238 0 -237 -47 8
c-25 5 -66 20 -89 34 -39 23 -60 44 -121 122 l-18 23 -45 -57 c-43 -55 -109
-104 -158 -118 l-22 -6 2 238 3 238 60 7 c68 7 378 1 413 -8z m-988 -392 l0
-278 -65 -11 c-81 -14 -132 -38 -225 -108 -76 -57 -111 -73 -170 -77 l-35 -3
-3 252 -2 252 102 61 c114 67 193 107 313 157 44 18 81 33 83 33 1 0 2 -125 2
-278z m1730 174 c58 -29 147 -78 198 -110 l92 -57 0 -240 c0 -276 7 -259 -99
-241 -50 8 -78 20 -121 51 -100 73 -166 110 -221 124 l-54 14 -3 277 -2 276
52 -21 c29 -11 100 -44 158 -73z m-885 -245 c17 -12 22 -20 13 -17 -25 7 -22
-1 3 -15 17 -9 20 -8 14 2 -6 9 -3 10 11 5 20 -8 62 -17 188 -40 80 -15 147
-43 147 -61 0 -5 15 -26 34 -45 18 -19 45 -55 59 -80 14 -25 26 -40 26 -33 0
18 97 36 174 31 81 -6 125 -25 231 -101 84 -61 97 -72 70 -63 -11 4 -16 4 -12
-1 11 -10 63 -15 167 -17 l85 -1 1 -80 c1 -98 8 -162 18 -172 4 -4 4 1 0 12
-9 27 2 14 63 -70 90 -124 98 -146 98 -260 0 -77 -4 -107 -17 -126 -16 -25
-16 -26 6 -22 28 6 115 -61 151 -116 24 -35 49 -125 73 -261 6 -30 14 -64 18
-74 5 -14 4 -17 -5 -11 -10 6 -11 3 -2 -14 14 -25 23 -28 15 -3 -4 9 5 4 20
-13 31 -37 34 -55 4 -29 -13 10 -2 -4 24 -31 l48 -50 -48 -49 c-26 -28 -37
-42 -24 -32 30 26 28 15 -8 -36 -19 -27 -34 -66 -41 -103 -25 -140 -50 -231
-74 -266 -35 -53 -123 -122 -150 -117 -16 4 -21 0 -20 -18 0 -12 4 -26 8 -30
4 -5 5 0 1 11 -6 17 -5 18 7 7 10 -9 14 -41 14 -115 0 -115 -9 -139 -95 -257
-78 -107 -84 -124 -85 -225 l0 -90 -90 0 c-80 0 -96 -3 -139 -28 -57 -32 -63
-33 -45 -10 8 9 -8 2 -34 -17 -27 -19 -51 -39 -55 -45 -3 -5 2 -4 11 4 10 8
20 11 23 9 7 -7 -38 -39 -96 -68 -31 -16 -68 -25 -120 -28 -76 -4 -146 8 -143
24 1 6 -6 10 -16 10 -12 0 -16 -6 -13 -21 5 -27 -64 -115 -117 -150 -35 -24
-126 -49 -266 -74 -37 -7 -76 -22 -103 -41 -51 -36 -62 -38 -36 -7 10 12 -4 0
-32 -26 l-51 -49 -20 24 c-10 13 -32 34 -48 48 -17 13 -8 1 19 -28 l50 -52 23
22 c29 27 30 12 1 -19 l-22 -23 -40 43 c-23 24 -54 53 -71 66 -16 12 -22 20
-12 17 24 -7 21 1 -4 15 -17 9 -20 8 -14 -2 6 -9 3 -10 -11 -5 -10 4 -44 12
-74 18 -147 27 -199 40 -229 56 -18 10 -32 21 -30 24 2 4 -12 24 -33 45 -20
21 -45 54 -57 73 -12 19 -21 30 -21 25 0 -15 28 -54 69 -97 19 -21 30 -38 25
-38 -25 0 -108 113 -102 138 4 12 -1 18 -13 18 -10 0 -17 -4 -16 -10 3 -16
-67 -28 -143 -24 -52 3 -89 12 -120 28 -58 29 -103 61 -96 68 3 2 13 -1 23 -9
9 -8 14 -9 11 -4 -4 6 -28 26 -55 45 -26 19 -42 26 -34 17 19 -23 1 -21 -29 4
-20 17 -21 20 -5 14 11 -3 16 -3 12 1 -10 10 -74 17 -172 18 l-80 1 -1 85 c-1
47 -3 103 -6 125 -5 40 -51 120 -85 146 -11 8 -8 0 8 -21 65 -89 72 -100 68
-104 -10 -10 -124 160 -147 218 -21 51 -24 72 -20 143 3 50 10 88 17 96 11 10
12 7 6 -13 -4 -14 -4 -22 0 -18 5 5 9 21 10 36 1 24 -2 28 -20 24 -24 -4 -124
70 -133 98 -2 8 13 -1 34 -21 45 -41 84 -69 98 -69 6 0 -10 13 -35 29 -24 15
-55 40 -68 54 -13 15 -28 24 -33 21 -16 -10 -57 101 -73 199 -9 53 -20 109
-25 123 -13 32 -13 37 1 28 8 -4 8 0 0 15 -14 25 -23 28 -15 4 4 -10 -5 -5
-20 12 -31 37 -34 55 -3 29 12 -10 0 4 -26 32 l-49 51 24 20 c13 10 34 32 48
48 13 17 1 8 -27 -19 -49 -47 -52 -51 -36 -68 20 -22 6 -24 -18 -2 -18 16 -16
19 35 69 68 68 91 117 111 239 24 151 64 227 151 287 27 18 53 29 64 26 18 -5
18 -4 2 21 -13 20 -17 48 -17 122 0 111 18 156 108 278 64 85 80 134 75 228
l-3 69 73 -3 c91 -4 143 12 219 71 107 82 167 110 248 115 78 5 175 -12 175
-31 0 -7 12 8 26 33 33 59 59 87 113 121 25 16 41 29 35 29 -28 0 -108 -71
-145 -129 -16 -25 -29 -38 -29 -30 0 7 20 39 44 71 59 75 135 112 271 133 123
20 176 44 240 111 l50 53 40 -43 c22 -23 54 -52 70 -65z m453 -190 c23 -28 42
-59 42 -69 0 -10 -8 -3 -21 18 -12 19 -37 52 -57 74 -21 21 -30 36 -22 34 8
-3 34 -28 58 -57z m-2333 -1407 c-24 -50 -65 -94 -129 -140 l-28 -20 51 -37
c58 -42 106 -104 122 -156 6 -24 9 -231 7 -596 l-3 -560 -56 80 c-205 292
-337 628 -390 995 -19 129 -16 462 5 597 56 360 183 681 385 968 l56 80 3
-580 2 -579 -25 -52z m3640 1066 c174 -265 290 -570 341 -900 25 -158 25 -472
0 -630 -51 -331 -169 -642 -344 -904 l-67 -101 -3 599 -2 600 22 24 c13 13 43
38 67 55 l45 31 -29 20 c-16 12 -46 36 -67 55 l-38 33 0 609 c0 335 2 609 5
609 2 0 34 -45 70 -100z m-16 -1237 c-7 -7 -26 -23 -43 -35 l-31 -21 32 34 33
33 -33 35 -32 35 43 -33 c35 -27 40 -36 31 -48z m-3648 -40 c13 -16 12 -17 -3
-4 -10 7 -18 15 -18 17 0 8 8 3 21 -13z m628 -1304 c34 -7 76 -29 131 -69 104
-75 154 -99 235 -113 l65 -11 0 -268 0 -268 -62 24 c-109 41 -209 91 -326 160
l-112 67 0 238 c0 207 3 251 16 251 2 0 25 -5 53 -11z m2449 -225 l2 -232 -82
-53 c-89 -57 -279 -155 -365 -188 l-53 -21 0 265 c0 204 3 266 13 269 103 28
135 44 223 106 59 42 112 72 133 76 20 3 41 7 46 9 6 2 26 3 45 2 l35 -2 3
-231z m-2288 191 c7 -8 8 -15 2 -15 -5 0 -15 7 -22 15 -7 8 -8 15 -2 15 5 0
15 -7 22 -15z m2030 0 c-7 -8 -17 -15 -22 -15 -6 0 -5 7 2 15 7 8 17 15 22 15
6 0 5 -7 -2 -15z m-761 -806 c-22 -13 -275 -21 -380 -13 l-104 9 -3 228 -2
228 22 -7 c66 -20 124 -65 170 -132 l31 -45 19 24 c81 106 131 144 209 157
l44 8 3 -225 c2 -164 -1 -227 -9 -232z"/>
<path d="M2925 4768 c-28 -28 -37 -42 -22 -30 16 11 38 33 49 47 l21 27 51
-49 51 -48 -50 53 c-27 28 -50 52 -50 52 0 0 -23 -23 -50 -52z"/>
<path d="M3401 4626 c2 -2 15 -9 29 -15 24 -11 24 -11 6 3 -16 13 -49 24 -35
12z"/>
<path d="M2044 4414 c-18 -14 -18 -15 4 -4 12 6 22 13 22 15 0 8 -5 6 -26 -11z"/>
<path d="M1980 4369 l-35 -30 38 26 c33 24 43 35 34 35 -1 0 -18 -14 -37 -31z"/>
<path d="M3932 4394 c4 -5 28 -25 54 -44 26 -18 45 -29 42 -24 -4 5 -28 25
-54 44 -26 18 -45 29 -42 24z"/>
<path d="M1905 4319 c-16 -10 -25 -19 -19 -19 7 0 22 9 35 20 30 24 23 24 -16
-1z"/>
<path d="M2843 4147 c-8 -13 -10 -76 -2 -71 3 2 16 -7 29 -21 l22 -24 -42 21
c-39 20 -44 20 -55 5 -7 -9 -15 -14 -19 -10 -4 4 -17 8 -29 8 -15 0 -23 7 -25
22 -2 12 -10 27 -19 35 -18 14 -74 18 -66 4 3 -4 -5 -5 -18 -1 -19 5 -21 4 -9
-4 12 -8 5 -11 -26 -11 -48 0 -82 -23 -86 -60 -5 -34 -17 -52 -30 -44 -7 4 -8
2 -4 -5 4 -6 11 -9 16 -6 4 3 6 -4 3 -15 -5 -19 -5 -19 -22 0 -17 20 -57 31
-54 15 1 -6 -8 -22 -19 -35 -11 -14 -16 -19 -12 -11 14 27 22 91 11 98 -5 3
-28 6 -51 7 -29 0 -40 -4 -38 -13 2 -10 -5 -12 -25 -7 -22 5 -25 4 -13 -5 12
-9 11 -10 -7 -6 -12 3 -22 2 -21 -2 1 -3 -6 -21 -16 -40 -10 -18 -13 -31 -8
-27 5 3 22 -8 37 -24 34 -35 23 -40 -14 -7 l-26 22 24 -28 c14 -15 31 -26 40
-25 9 2 17 -8 22 -27 3 -16 10 -39 14 -49 7 -15 5 -17 -6 -11 -12 8 -12 6 0
-8 15 -19 26 -23 15 -6 -4 7 -1 10 7 7 8 -3 14 -9 14 -14 0 -5 12 -25 28 -44
16 -21 25 -27 21 -15 -6 16 -4 18 6 8 10 -9 10 -19 1 -44 -9 -27 -9 -35 4 -46
8 -7 10 -8 5 -1 -19 23 -10 29 15 11 23 -17 36 -41 15 -28 -7 4 -7 -3 0 -20
13 -34 13 -38 -2 -29 -10 6 -10 5 -1 -8 7 -8 9 -19 5 -23 -4 -5 -1 -5 6 -1 7
4 10 12 7 17 -4 5 -1 9 4 9 6 0 11 -6 11 -14 0 -16 -24 -38 -33 -30 -7 7 8
-50 17 -64 5 -8 -193 20 -210 30 -15 10 1 -493 20 -617 36 -229 108 -446 201
-607 47 -81 52 -94 34 -82 -8 5 -8 1 0 -14 6 -12 17 -24 24 -28 8 -5 7 -2 -2
9 -8 10 -11 20 -9 23 6 5 48 -49 48 -61 0 -4 -8 -1 -17 6 -17 13 -17 13 -3 -6
52 -71 150 -180 203 -226 114 -100 221 -179 204 -151 -6 8 -1 12 13 12 13 0
19 -4 14 -11 -5 -8 -1 -8 14 0 12 6 24 17 28 24 5 8 2 7 -9 -2 -10 -8 -20 -12
-22 -9 -6 5 111 98 123 98 4 -1 -13 -19 -38 -42 -37 -33 -39 -36 -10 -17 100
68 315 303 383 418 29 50 12 35 -23 -19 -18 -28 -35 -49 -37 -46 -2 2 11 28
30 57 123 193 207 434 248 714 13 93 28 585 16 578 -15 -9 -215 -39 -211 -31
11 18 22 68 14 63 -4 -2 -13 2 -21 11 -10 12 -9 18 4 32 11 10 17 12 17 4 0
-7 -5 -12 -11 -12 -5 0 -7 -5 -3 -11 10 -17 25 12 18 36 -3 11 -8 28 -11 38
-4 15 -1 18 15 13 11 -4 23 -2 27 3 4 7 -1 8 -12 4 -16 -6 -16 -5 -4 10 7 9
17 14 22 11 5 -3 4 7 -1 21 -11 28 -5 49 10 40 5 -3 12 0 16 6 5 8 3 9 -6 4
-8 -5 -11 -3 -8 6 3 8 11 14 19 14 8 0 14 6 14 14 0 8 6 16 14 19 9 3 11 0 6
-8 -6 -9 -3 -9 14 -1 25 14 28 23 4 14 -16 -6 -16 -5 -4 10 7 9 16 15 20 13 3
-2 6 12 6 32 0 20 5 37 10 37 6 0 24 10 40 23 19 14 23 20 10 15 -18 -6 -18
-5 -6 10 7 9 17 15 21 12 13 -8 -2 39 -18 58 -17 19 -3 23 18 5 12 -11 12 -10
1 4 -8 11 -22 16 -35 13 -11 -2 -34 2 -51 10 -25 12 -26 14 -5 9 14 -4 22 -3
17 1 -8 10 -87 13 -81 4 6 -10 -22 -30 -30 -22 -3 4 0 -13 9 -36 20 -57 19
-59 -7 -25 -13 16 -22 32 -20 37 1 4 -6 3 -17 -3 -25 -13 -34 -13 -26 0 3 5 0
7 -8 4 -17 -6 -30 11 -35 46 -4 37 -38 60 -86 60 -31 0 -38 3 -26 11 12 8 10
9 -9 4 -13 -4 -21 -3 -18 1 9 15 -49 10 -66 -5 -10 -7 -17 -22 -17 -32 0 -10
-9 -23 -19 -29 -26 -13 -34 -13 -25 3 5 9 4 9 -6 0 -11 -10 -16 -9 -25 4 -11
15 -16 15 -55 -5 l-42 -21 22 24 c13 14 26 23 29 21 8 -5 6 58 -2 71 -4 7 -23
7 -57 0 -33 -6 -67 -6 -100 0 -34 7 -53 7 -57 0z m204 -34 c2 -6 -10 -27 -27
-46 -34 -39 -25 -59 15 -37 43 23 53 9 48 -67 -3 -37 -9 -72 -14 -78 -6 -5
-22 -4 -45 4 -46 17 -67 2 -39 -29 22 -24 46 -25 84 -5 25 12 31 12 41 1 21
-27 66 -36 90 -19 32 22 19 38 -31 38 -43 0 -44 1 -42 30 1 17 5 51 8 78 8 53
28 62 60 27 29 -32 39 -8 16 38 -18 35 -19 42 -6 52 12 10 24 9 58 -4 23 -9
57 -16 74 -16 17 0 36 -7 43 -15 10 -12 7 -19 -16 -40 -15 -14 -31 -25 -35
-25 -5 0 -9 -7 -9 -16 0 -13 7 -15 41 -9 l42 7 -7 -33 c-4 -19 -10 -52 -14
-73 -10 -55 -33 -67 -72 -38 -31 23 -50 22 -50 -3 0 -27 46 -47 90 -40 24 4
40 3 40 -3 0 -5 14 -15 31 -22 26 -11 33 -11 46 3 13 13 14 19 4 31 -8 9 -17
13 -22 10 -16 -10 -49 7 -49 24 0 10 6 26 14 37 7 11 19 37 25 58 15 46 32 47
65 5 32 -41 52 -29 35 20 -13 39 -6 62 20 62 24 0 107 -35 115 -49 4 -6 -11
-30 -34 -54 -22 -24 -40 -54 -40 -65 0 -13 -23 -45 -55 -77 -42 -42 -55 -62
-55 -84 0 -21 -7 -34 -21 -42 -16 -8 -20 -17 -16 -37 4 -19 -1 -34 -15 -49
-20 -21 -20 -24 -5 -41 34 -38 10 -90 -35 -79 -13 3 -62 19 -109 35 -200 70
-478 70 -678 0 -115 -40 -129 -42 -146 -28 -19 16 -19 54 -1 69 14 12 10 51
-5 51 -5 0 -8 14 -7 30 2 21 -4 35 -20 46 -15 10 -22 24 -20 43 2 26 -34 91
-51 91 -18 0 -51 43 -51 66 0 15 -16 42 -40 68 -22 24 -40 48 -40 55 0 15 106
62 125 55 20 -8 26 -31 14 -61 -5 -14 -7 -34 -4 -42 5 -13 12 -9 34 18 32 39
57 37 67 -6 4 -15 15 -39 24 -53 32 -46 33 -67 6 -86 -16 -10 -32 -13 -43 -8
-14 6 -11 9 16 13 19 3 36 12 39 20 3 10 0 11 -13 3 -10 -5 -26 -7 -36 -5 -24
7 -36 -22 -19 -42 15 -18 45 -11 76 17 14 13 24 16 29 9 17 -28 95 1 95 35 0
24 -19 25 -49 3 -35 -26 -58 -20 -66 18 -3 15 -10 42 -15 59 -19 58 -15 67 30
59 33 -6 40 -4 40 9 0 9 -4 16 -9 16 -4 0 -20 11 -35 25 -23 21 -26 28 -16 40
7 8 26 15 43 15 17 0 51 7 75 17 37 14 45 14 57 2 13 -13 12 -20 -6 -53 -23
-44 -13 -68 16 -36 23 26 52 26 60 -1 4 -11 5 -23 2 -26 -3 -3 0 -24 8 -48 11
-37 10 -45 -2 -58 -12 -11 -23 -13 -46 -6 -44 12 -60 -6 -28 -32 26 -22 53
-18 86 11 18 16 23 17 45 5 35 -20 64 -18 85 5 14 16 16 23 7 32 -10 10 -17
10 -32 0 -25 -16 -60 -15 -65 1 -2 6 -6 40 -8 75 -6 71 5 85 48 62 40 -21 49
-2 15 36 -50 58 -45 63 72 61 59 -1 93 -6 95 -14z m-319 -67 c-2 -1 -12 -8
-22 -16 -18 -14 -18 -14 -6 7 8 12 18 19 23 16 4 -3 7 -6 5 -7z m82 -1 c-8
-10 -10 -31 -5 -64 4 -30 3 -51 -4 -55 -6 -4 -12 9 -16 31 -3 21 -10 51 -15
66 -7 24 -7 27 5 17 12 -10 16 -9 21 4 3 9 11 16 16 16 6 0 5 -6 -2 -15z m294
-1 c3 -8 10 -13 15 -9 9 5 7 -35 -5 -94 -9 -43 -25 -1 -18 47 4 27 2 47 -6 57
-7 9 -8 15 -2 15 5 0 13 -7 16 -16z m101 -13 l20 -25 -26 20 c-15 10 -25 23
-22 27 3 5 6 7 7 5 0 -2 10 -14 21 -27z m-655 -35 c0 -2 -13 -3 -30 -3 -22 0
-27 4 -20 12 5 7 6 15 2 20 -4 4 5 0 21 -10 15 -9 27 -18 27 -19z m845 25 c-3
-5 6 -18 20 -29 l25 -20 -22 -51 c-26 -64 -35 -61 -11 3 17 46 17 48 -2 62
-11 8 -25 12 -32 9 -42 -17 -44 -15 -13 8 40 29 43 31 35 18z m-886 -136 c0
-5 -6 1 -14 15 -8 14 -14 30 -14 35 0 6 6 -1 14 -15 8 -14 14 -29 14 -35z
m1151 21 c0 -2 -8 -10 -17 -17 -16 -13 -17 -12 -4 4 13 16 21 21 21 13z m-755
-35 c-3 -6 -14 -11 -23 -11 -13 0 -13 2 4 14 21 15 30 14 19 -3z m120 -9 c-7
-8 -35 7 -35 18 0 6 7 6 20 -2 10 -7 17 -14 15 -16z m-280 -12 c18 -8 17 -9
-7 -9 -15 -1 -30 4 -33 9 -7 12 12 12 40 0z m450 0 c-3 -5 -16 -10 -28 -10
-18 0 -19 2 -7 10 20 13 43 13 35 0z m-579 -28 c-3 -5 -16 -12 -28 -15 -22 -6
-22 -6 2 13 25 19 37 20 26 2z m714 -18 c0 -9 -44 14 -48 25 -3 8 5 7 22 -4
14 -10 26 -19 26 -21z m108 -4 c12 0 22 -4 22 -10 0 -25 -63 -2 -74 27 -6 16
-6 16 12 0 10 -9 28 -17 40 -17z m-1068 -45 c20 -24 6 -28 -15 -5 -10 11 -13
20 -8 20 6 0 16 -7 23 -15z m788 -256 c44 -8 60 -14 51 -21 -9 -6 -6 -7 12 -3
15 4 50 -3 89 -18 l64 -24 -170 -11 c-93 -7 -207 -12 -254 -12 -47 0 -161 5
-254 12 l-170 11 64 24 c39 15 74 22 89 18 18 -4 22 -3 12 4 -39 26 338 42
467 20z m-768 -74 c13 -4 15 -49 12 -341 l-3 -336 -47 7 c-26 4 -48 8 -49 9
-1 1 -9 46 -18 100 -19 115 -34 399 -27 505 l4 73 57 -7 c31 -3 63 -8 71 -10z
m1216 -7 c23 -36 47 -321 24 -288 -5 8 -10 31 -10 50 0 45 -24 80 -55 80 -39
0 -55 -25 -55 -86 0 -45 -4 -59 -25 -79 -48 -49 -99 -23 -108 56 -8 61 -20 79
-57 79 -39 0 -53 -22 -57 -88 -3 -61 -25 -92 -65 -92 -33 0 -68 45 -68 88 0
49 -19 75 -55 75 -38 0 -55 -27 -55 -83 0 -36 -5 -52 -23 -68 -13 -12 -27 -19
-30 -15 -4 3 -7 45 -7 92 0 81 1 86 27 107 22 17 28 32 33 75 l5 54 49 9 c45
8 51 7 68 -14 11 -14 18 -39 18 -66 0 -38 4 -46 25 -56 18 -8 32 -8 49 0 20 9
24 19 28 71 2 34 9 65 14 70 17 15 82 20 99 7 11 -8 19 -32 23 -65 4 -43 9
-55 28 -63 18 -8 29 -7 49 6 21 14 25 24 25 67 0 71 12 89 60 89 21 0 42 -5
46 -12z m-942 -24 c14 -5 16 -44 16 -335 l0 -329 -54 0 c-94 0 -86 -30 -86
341 l0 329 54 0 c30 0 61 -3 70 -6z m276 -349 l0 -335 -42 0 c-24 0 -53 3 -65
6 l-23 6 0 329 0 329 65 0 65 0 0 -335z m672 38 c19 -17 24 -89 10 -167 -6
-35 -9 -37 -21 -23 -15 19 -43 22 -72 7 -14 -8 -19 -21 -19 -55 0 -68 -13 -93
-55 -101 -47 -8 -62 6 -70 67 -10 72 -54 100 -95 59 -14 -14 -20 -33 -20 -67
0 -64 -9 -74 -65 -81 -58 -6 -75 10 -75 73 0 50 -13 65 -57 65 -38 0 -53 -21
-53 -77 0 -47 -20 -79 -44 -70 -13 5 -16 22 -16 92 0 81 1 86 24 95 20 7 25
18 31 70 11 96 58 128 110 75 19 -18 25 -35 25 -69 0 -35 5 -48 22 -60 30 -21
44 -20 68 4 15 15 20 33 20 70 0 37 5 55 20 70 45 45 110 10 110 -58 0 -47 24
-82 55 -82 33 0 55 36 55 90 0 59 21 90 62 90 17 0 40 -7 50 -17z m-42 -432
c-24 -96 -79 -251 -88 -251 -4 0 -5 73 -2 162 l5 163 50 5 c28 3 51 5 53 4 2
-1 -6 -38 -18 -83z m-1146 57 c10 -13 16 -43 16 -75 0 -59 17 -83 59 -83 38 0
51 18 60 82 10 76 15 81 70 73 57 -8 71 -25 71 -90 0 -55 13 -79 46 -89 37
-11 64 22 71 86 3 32 12 63 19 69 7 5 32 9 56 7 l43 -3 3 -105 c2 -83 0 -102
-10 -92 -17 17 -64 15 -82 -4 -10 -10 -16 -33 -16 -65 0 -40 -5 -55 -25 -74
-32 -33 -60 -31 -96 4 -25 25 -29 37 -29 82 0 58 -19 89 -54 89 -38 0 -49 -17
-57 -81 -5 -47 -13 -68 -29 -81 -31 -25 -67 -22 -95 7 -21 21 -25 33 -25 88 0
66 -8 82 -45 88 -20 4 -36 47 -53 139 l-9 47 48 2 c39 2 50 -2 63 -21z m926
-275 l0 -276 -40 -51 c-21 -29 -49 -61 -62 -73 l-23 -22 3 344 3 344 27 4 c15
2 42 5 60 6 l32 1 0 -277z m-250 -147 l0 -404 -64 -51 c-35 -28 -65 -51 -67
-51 -3 0 -2 795 1 908 0 1 29 2 65 2 l65 0 0 -404z m-427 6 c10 -9 17 -31 18
-56 1 -62 12 -89 41 -105 23 -13 29 -13 52 2 21 14 26 25 26 56 0 89 42 135
102 110 l28 -11 0 -100 c0 -95 -1 -98 -20 -88 -28 15 -70 2 -81 -27 -5 -13 -9
-44 -9 -68 0 -35 -5 -48 -26 -64 -35 -28 -42 -27 -81 11 -26 25 -33 40 -33 69
0 54 -16 88 -44 95 -34 8 -50 -3 -35 -24 6 -10 -7 2 -28 26 -38 41 -40 46 -35
95 6 63 16 85 45 97 26 10 55 4 80 -18z m666 -214 c-45 -58 -220 -238 -232
-238 -6 0 30 39 79 88 49 48 109 113 133 145 24 32 46 55 49 53 2 -3 -11 -24
-29 -48z m-652 -128 c28 -30 94 -89 146 -130 101 -79 126 -112 32 -41 -120 91
-314 286 -315 316 0 6 19 -12 42 -40 24 -27 66 -75 95 -105z m-22 80 c10 -11
16 -20 13 -20 -3 0 -13 9 -23 20 -10 11 -16 20 -13 20 3 0 13 -9 23 -20z m186
-177 c13 -16 12 -17 -3 -4 -17 13 -22 21 -14 21 2 0 10 -8 17 -17z"/>
<path d="M2920 3990 c-11 -11 -20 -24 -20 -30 0 -5 9 -19 20 -30 11 -11 25
-20 30 -20 15 0 50 38 50 53 0 16 -32 47 -48 47 -7 0 -21 -9 -32 -20z m51 0
c24 -14 24 -32 -1 -55 -19 -17 -21 -17 -40 0 -24 22 -25 29 -4 49 18 19 20 19
45 6z"/>
<path d="M2936 3981 c-3 -5 2 -8 11 -7 9 0 18 -5 21 -13 3 -10 -1 -12 -17 -8
-11 3 -21 1 -21 -4 0 -12 37 -11 45 1 7 11 -12 40 -26 40 -4 0 -10 -4 -13 -9z"/>
<path d="M2610 3960 c-11 -11 -20 -23 -20 -28 0 -17 32 -52 49 -52 20 0 51 30
51 48 0 15 -36 52 -50 52 -5 0 -19 -9 -30 -20z m54 -9 c14 -15 15 -24 6 -40
-13 -25 -33 -27 -54 -5 -20 19 -20 23 1 46 20 23 26 23 47 -1z"/>
<path d="M2617 3936 c-3 -8 1 -20 9 -27 12 -10 18 -9 31 3 8 9 12 21 9 27 -10
16 -43 14 -49 -3z m38 -5 c7 -12 -12 -24 -25 -16 -11 7 -4 25 10 25 5 0 11 -4
15 -9z"/>
<path d="M3230 3960 c-25 -25 -25 -42 -1 -64 37 -34 94 10 71 54 -6 11 -15 20
-21 20 -6 0 -7 -4 -4 -10 3 -5 -4 -10 -16 -10 -18 0 -19 2 -9 15 18 22 3 18
-20 -5z m40 -36 c0 -20 -17 -17 -29 4 -6 9 -11 12 -11 6 0 -17 27 -37 40 -29
5 3 10 16 10 28 0 14 3 18 10 11 15 -15 2 -42 -22 -50 -24 -7 -53 18 -45 39 7
19 47 11 47 -9z"/>
<path d="M2346 3874 c-9 -8 -16 -21 -16 -28 0 -15 20 -36 35 -36 5 0 2 5 -7
11 -10 5 -18 18 -18 27 1 16 1 16 11 0 5 -10 17 -18 25 -18 8 0 12 -4 9 -10
-3 -5 -2 -10 3 -10 10 0 22 23 22 40 0 11 -29 40 -40 40 -5 0 -16 -7 -24 -16z
m42 -6 c7 -7 12 -19 11 -27 0 -10 -4 -7 -9 7 -5 12 -15 22 -22 22 -9 0 -9 -3
2 -10 8 -5 11 -12 7 -17 -9 -9 -28 17 -21 29 7 11 18 10 32 -4z"/>
<path d="M3504 3865 c-13 -20 -14 -28 -4 -40 7 -8 18 -15 24 -14 7 0 6 2 -1 6
-21 8 -15 22 7 16 11 -3 17 -10 13 -17 -4 -6 1 -5 10 3 18 14 24 26 8 17 -5
-3 -11 4 -14 16 -5 18 -8 19 -21 8 -11 -9 -16 -9 -16 -1 0 19 29 24 48 10 15
-13 16 -12 3 4 -19 24 -38 21 -57 -8z m36 -15 c0 -5 -5 -10 -11 -10 -5 0 -7 5
-4 10 3 6 8 10 11 10 2 0 4 -4 4 -10z"/>
<path d="M2820 3733 c-133 -14 -360 -74 -360 -94 0 -6 9 -13 19 -16 26 -7 34
-29 19 -53 -7 -10 -10 -21 -7 -24 3 -3 46 8 96 24 124 40 200 51 363 51 179 0
298 -21 448 -79 11 -4 13 2 7 27 -6 26 -3 37 15 53 l23 21 -24 12 c-37 20
-225 63 -319 75 -81 10 -206 11 -280 3z m90 -33 c-8 -14 -8 -26 0 -40 10 -18
8 -20 -22 -20 -25 0 -29 3 -20 12 16 16 15 33 -4 52 -14 15 -12 16 21 16 33 0
35 -2 25 -20z m65 4 c18 -18 16 -33 -7 -47 -35 -22 -66 21 -36 51 16 16 23 15
43 -4z m59 -5 c-15 -17 -16 -23 -6 -40 11 -17 9 -19 -19 -19 -27 0 -30 2 -19
15 7 8 10 26 8 40 -5 22 -2 25 25 25 30 0 30 0 11 -21z m-262 -1 c-16 -16 -15
-33 4 -52 14 -15 13 -16 -8 -17 -52 -3 -83 -9 -122 -24 -27 -11 -37 -12 -28
-4 18 19 15 56 -5 68 -10 6 -13 11 -6 11 6 0 17 2 25 5 9 4 13 -5 12 -34 0
-28 3 -38 13 -34 9 3 10 10 4 22 -13 23 1 42 41 57 46 16 86 18 70 2z m402 6
c14 -5 14 -8 1 -21 -17 -17 -19 -39 -5 -48 6 -3 10 5 10 18 0 22 16 37 40 37
5 0 14 -9 20 -21 18 -32 -4 -51 -54 -45 -23 3 -50 5 -61 6 -16 0 -17 2 -5 9 8
6 17 8 21 5 10 -6 -2 38 -14 54 -7 9 -4 12 11 12 11 0 27 -3 36 -6z m-316 -26
c-2 -19 -10 -24 -40 -26 -32 -3 -38 0 -38 16 0 26 8 32 47 32 30 0 34 -3 31
-22z m260 -5 c3 -20 -1 -23 -32 -23 -37 0 -51 12 -42 36 4 10 16 14 38 12 25
-2 34 -8 36 -25z m175 7 c7 0 4 -5 -5 -11 -21 -12 -24 -49 -5 -68 10 -10 8
-11 -8 -5 -34 12 -36 15 -24 30 6 8 9 25 6 40 -3 19 -1 24 10 20 8 -3 20 -6
26 -6z m-766 -45 c-7 -13 -13 -20 -15 -15 -2 6 -11 10 -20 10 -12 1 -10 5 8
15 35 20 40 18 27 -10z m83 21 c0 -2 3 -11 6 -20 4 -10 -5 -20 -26 -31 -30
-16 -34 -16 -49 0 -15 15 -14 18 8 36 20 17 61 27 61 15z m739 -13 c19 -16 20
-20 8 -37 -13 -17 -15 -17 -45 -2 -30 16 -40 35 -25 49 12 12 40 7 62 -10z
m63 -2 c4 -4 0 -11 -10 -17 -15 -10 -20 -7 -29 13 -11 22 -10 23 10 17 12 -3
25 -9 29 -13z m-854 -67 c2 -1 -8 -4 -21 -6 -20 -4 -23 -1 -19 14 4 15 7 16
21 6 9 -7 17 -13 19 -14z m832 -5 c0 -3 -11 -4 -25 -1 -24 4 -24 5 -8 17 17
13 32 5 33 -16z"/>
<path d="M2724 3694 c-6 -2 -9 -18 -6 -34 2 -16 9 -27 14 -24 5 3 7 17 3 31
-4 18 -2 23 6 17 8 -4 9 -3 5 4 -4 7 -8 12 -9 11 -1 0 -7 -3 -13 -5z"/>
<path d="M3150 3689 c0 -5 5 -7 10 -4 6 3 10 8 10 11 0 2 -4 4 -10 4 -5 0 -10
-5 -10 -11z"/>
<path d="M2700 4136 c0 -2 8 -10 18 -17 15 -13 16 -12 3 4 -13 16 -21 21 -21
13z"/>
<path d="M3179 4123 c-13 -16 -12 -17 4 -4 16 13 21 21 13 21 -2 0 -10 -8 -17
-17z"/>
<path d="M1685 3815 c0 -255 -1 -270 -19 -273 -12 -3 -16 0 -11 8 6 9 2 9 -14
1 -24 -13 -28 -23 -6 -15 11 5 10 -2 -5 -33 -11 -21 -22 -69 -26 -106 -5 -58
-8 -68 -22 -63 -99 32 -103 32 -129 2 -19 -22 -23 -35 -17 -58 4 -21 3 -28 -5
-24 -25 16 2 -23 32 -44 30 -22 31 -22 13 -2 -11 12 -15 22 -9 22 26 0 41 -42
57 -155 9 -66 16 -150 16 -186 0 -41 9 -99 25 -152 34 -117 63 -292 58 -352
-2 -27 -10 -124 -19 -213 -14 -143 -14 -166 -2 -178 12 -13 20 -12 59 5 24 12
62 21 85 21 22 0 49 6 59 14 18 13 17 14 -13 30 -17 9 -44 16 -61 16 -70 0
-41 44 36 56 32 5 47 12 52 27 5 13 23 24 52 32 24 7 53 16 63 20 15 7 17 5
11 -6 -8 -12 -6 -12 8 0 9 7 14 18 10 25 -4 6 -15 47 -24 90 -12 59 -13 75 -4
62 8 -10 16 -13 19 -7 4 6 14 7 23 4 15 -6 14 -7 -3 -15 -18 -8 -18 -8 1 -4
11 2 29 7 39 12 14 5 17 4 11 -5 -6 -10 -3 -11 14 -2 24 13 28 23 6 15 -34
-14 -10 7 80 66 52 34 95 65 95 68 0 5 -37 202 -61 329 -6 29 -21 68 -34 87
-24 36 -22 47 5 24 12 -11 12 -10 2 3 -15 21 -90 15 -236 -17 -60 -13 -110
-24 -112 -24 -2 0 3 15 10 33 8 17 19 56 26 85 10 43 16 52 29 47 48 -19 70
-17 95 8 33 33 33 48 0 86 -28 34 -23 41 10 14 21 -18 21 -18 4 2 -20 24 -84
64 -73 45 4 -7 4 -11 -1 -9 -87 36 -124 54 -124 61 0 4 7 8 15 8 24 0 44 50
62 156 4 25 -1 35 -27 57 -17 15 -35 27 -38 27 -4 0 -7 117 -7 261 0 282 0
284 -54 284 l-26 0 0 -270z m66 248 c13 -15 12 -15 -8 -4 -24 12 -29 21 -14
21 5 0 15 -7 22 -17z m-12 -295 c1 -146 -3 -228 -9 -228 -6 0 -10 90 -9 253 1
142 4 241 9 227 4 -14 8 -127 9 -252z m38 -263 c36 -15 36 -15 29 -64 -15
-116 -50 -149 -135 -129 l-47 10 7 75 c9 94 27 123 75 123 19 0 51 -7 71 -15z
m-238 -185 c10 -5 54 -17 97 -25 83 -17 243 -88 282 -125 48 -45 9 -85 -59
-61 -49 17 -59 14 -59 -18 0 -16 -9 -58 -20 -94 -16 -52 -25 -67 -48 -75 -47
-18 -80 -22 -120 -16 l-39 6 -20 151 -21 151 -38 31 c-31 27 -36 36 -30 58 5
20 13 27 32 27 14 0 33 -4 43 -10z m-84 -80 c3 -5 1 -10 -4 -10 -6 0 -11 5
-11 10 0 6 2 10 4 10 3 0 8 -4 11 -10z m460 -20 c3 -5 2 -10 -4 -10 -5 0 -13
5 -16 10 -3 6 -2 10 4 10 5 0 13 -4 16 -10z m171 -285 c12 -8 26 -27 32 -42 9
-22 72 -343 72 -365 0 -3 -42 -33 -93 -67 -88 -58 -94 -60 -124 -49 -29 11
-35 22 -74 132 -23 67 -47 126 -52 131 -7 7 -8 4 -4 -7 3 -9 22 -102 42 -205
20 -103 38 -195 41 -204 5 -17 -23 -32 -85 -44 -20 -4 -35 -14 -38 -25 -3 -11
-25 -23 -63 -34 -68 -18 -87 -41 -64 -74 8 -11 27 -22 42 -24 22 -2 16 -7 -35
-24 l-63 -21 0 26 c0 14 7 85 15 156 25 223 17 333 -41 534 -13 46 -24 94 -24
107 0 23 3 24 59 24 32 0 87 9 122 20 55 18 273 67 304 69 6 1 20 -6 31 -14z"/>
<path d="M4130 4067 c-12 -10 -16 -56 -18 -272 -4 -253 -4 -260 -25 -277 -28
-23 -43 -23 -26 0 7 9 1 6 -14 -7 -26 -24 -36 -38 -18 -27 5 3 11 -11 14 -32
16 -112 35 -162 63 -162 8 0 14 -4 14 -8 0 -7 -37 -25 -124 -61 -5 -2 -5 2 -1
9 11 19 -53 -21 -73 -45 -17 -20 -17 -20 4 -2 33 27 38 20 10 -14 -33 -39 -33
-62 1 -89 27 -21 50 -22 95 -5 12 5 18 -1 23 -27 3 -18 13 -55 22 -81 8 -27
13 -50 11 -52 -2 -3 -42 5 -88 16 -46 10 -117 23 -159 28 -73 9 -77 8 -98 -16
-13 -13 -23 -29 -23 -36 0 -7 9 3 20 21 11 17 25 32 32 32 6 0 2 -10 -9 -22
-28 -31 -38 -66 -73 -261 -26 -140 -29 -171 -18 -185 11 -13 11 -15 -4 -9 -38
14 -23 2 87 -69 16 -10 26 -13 22 -6 -5 6 -4 12 0 12 15 0 84 -51 79 -58 -2
-4 13 -7 35 -7 26 0 43 7 53 20 11 15 10 1 -5 -65 -10 -46 -16 -87 -13 -91 2
-4 -1 -9 -8 -11 -7 -3 -5 -7 6 -11 11 -5 15 -3 10 5 -5 8 -2 9 12 3 10 -4 38
-13 61 -19 26 -6 45 -18 52 -32 6 -15 22 -23 51 -28 87 -14 103 -49 27 -59
-23 -2 -51 -8 -62 -12 -17 -6 -17 -5 -5 5 12 9 12 11 1 8 -16 -5 -22 -56 -7
-65 5 -3 6 -1 2 5 -10 17 102 3 153 -19 39 -17 47 -18 59 -5 12 12 12 34 -1
162 -28 265 -28 273 -7 387 11 59 29 138 41 175 13 42 24 117 30 202 5 74 15
168 22 209 11 66 15 76 47 99 l35 26 -25 -28 -25 -29 26 17 c23 15 26 22 24
62 -4 49 -27 84 -56 84 -10 0 -37 -7 -59 -16 -23 -9 -43 -14 -46 -12 -2 3 -9
40 -13 82 -5 42 -17 88 -26 104 l-18 27 22 -19 c18 -17 21 -17 15 -3 -3 9 -11
17 -18 18 -6 1 -20 2 -31 3 -19 1 -20 8 -20 272 0 296 3 281 -55 245 l-25 -15
19 22 c21 24 19 28 -4 9z m30 -287 c0 -160 -4 -250 -10 -250 -6 0 -10 85 -10
234 0 210 3 266 16 266 2 0 4 -112 4 -250z m60 -290 c11 -11 20 -30 21 -42 0
-13 4 -48 8 -79 l7 -57 -48 -11 c-41 -9 -53 -8 -80 8 -26 14 -35 28 -45 67
-20 86 -17 103 20 119 47 21 93 19 117 -5z m196 -197 c6 -22 1 -31 -30 -58
l-38 -32 -21 -151 -21 -151 -34 -6 c-40 -7 -136 11 -151 29 -6 7 -19 50 -30
95 -11 46 -22 85 -24 88 -2 2 -24 -2 -49 -8 -25 -7 -52 -9 -61 -6 -24 9 -21
42 6 68 36 36 198 106 282 124 43 9 85 20 94 25 9 5 28 10 43 10 22 0 29 -6
34 -27z m-431 -83 c-3 -5 -11 -10 -16 -10 -6 0 -7 5 -4 10 3 6 11 10 16 10 6
0 7 -4 4 -10z m5 -306 c58 -13 127 -31 154 -39 27 -8 75 -15 108 -15 69 0 70
-4 37 -115 -34 -113 -60 -265 -60 -340 1 -38 8 -141 17 -228 9 -87 14 -160 11
-164 -4 -3 -12 -1 -19 5 -7 5 -33 16 -58 23 -39 12 -42 14 -18 17 33 4 50 24
46 54 -2 19 -15 27 -65 43 -36 11 -63 25 -63 32 0 15 -4 16 -65 33 -22 5 -45
13 -52 18 -9 5 -1 63 31 225 24 120 40 214 36 210 -4 -4 -26 -62 -50 -129 -39
-109 -46 -122 -74 -132 -28 -11 -36 -8 -123 49 -51 34 -93 67 -93 73 0 6 9 61
21 121 44 237 49 254 75 274 29 23 44 21 204 -15z m-260 -450 c22 -15 38 -29
36 -31 -4 -4 -86 46 -86 53 0 8 12 3 50 -22z m190 -84 c0 -5 -7 -10 -16 -10
-8 0 -12 5 -9 10 3 6 10 10 16 10 5 0 9 -4 9 -10z"/>
<path d="M1627 4037 l-17 -32 20 24 c17 20 26 41 18 41 -2 0 -11 -15 -21 -33z"/>
<path d="M4350 3986 c19 -26 39 -50 44 -54 5 -3 -6 16 -24 42 -19 26 -39 50
-44 54 -5 3 6 -16 24 -42z"/>
<path d="M1577 3968 c-30 -41 -64 -97 -51 -83 16 16 84 115 79 115 -2 0 -15
-15 -28 -32z"/>
<path d="M1429 3537 c-46 -34 -109 -110 -109 -130 0 -7 10 4 21 23 30 51 58
79 108 111 25 16 40 29 34 29 -6 0 -31 -15 -54 -33z"/>
<path d="M4490 3549 c19 -12 53 -37 75 -57 28 -26 33 -29 15 -8 -30 34 -98 86
-114 86 -6 0 5 -9 24 -21z"/>
<path d="M1825 3520 c10 -11 20 -20 23 -20 3 0 -3 9 -13 20 -10 11 -20 20 -23
20 -3 0 3 -9 13 -20z"/>
<path d="M4611 3430 c14 -31 19 -36 19 -24 0 6 -7 19 -16 30 -14 18 -14 18 -3
-6z"/>
<path d="M1439 3353 c-13 -16 -12 -17 4 -4 9 7 17 15 17 17 0 8 -8 3 -21 -13z"/>
<path d="M4420 3356 c0 -2 8 -10 18 -17 15 -13 16 -12 3 4 -13 16 -21 21 -21
13z"/>
<path d="M4050 3327 c0 -14 24 -57 32 -57 5 0 1 12 -9 28 -22 35 -23 36 -23
29z"/>
<path d="M1961 3087 c-13 -21 -12 -21 5 -5 10 10 16 20 13 22 -3 3 -11 -5 -18
-17z"/>
<path d="M3917 3069 c12 -12 24 -21 27 -18 2 2 -8 13 -22 23 l-27 19 22 -24z"/>
<path d="M4700 2849 c-7 -11 -10 -23 -7 -25 2 -2 9 7 15 21 14 30 7 33 -8 4z"/>
<path d="M1320 2544 c0 -6 7 -19 16 -30 14 -18 14 -18 3 6 -14 31 -19 36 -19
24z"/>
<path d="M4610 2520 c-6 -11 -8 -20 -6 -20 3 0 10 9 16 20 6 11 8 20 6 20 -3
0 -10 -9 -16 -20z"/>
<path d="M4540 2438 c-30 -28 -41 -42 -25 -30 28 19 94 83 84 82 -2 -1 -29
-24 -59 -52z"/>
<path d="M2370 2385 c0 -5 5 -17 10 -25 5 -8 10 -10 10 -5 0 6 -5 17 -10 25
-5 8 -10 11 -10 5z"/>
<path d="M3482 2305 c-12 -25 -20 -45 -17 -45 7 0 47 81 43 86 -3 2 -14 -17
-26 -41z"/>
<path d="M2430 2260 c6 -11 13 -20 16 -20 2 0 0 9 -6 20 -6 11 -13 20 -16 20
-2 0 0 -9 6 -20z"/>
<path d="M1800 2076 c0 -2 7 -7 16 -10 8 -3 12 -2 9 4 -6 10 -25 14 -25 6z"/>
<path d="M4383 2008 c-43 -57 -66 -91 -58 -86 12 7 78 98 72 98 -3 0 -9 -6
-14 -12z"/>
<path d="M4305 1899 c-4 -6 -5 -12 -2 -15 2 -3 7 2 10 11 7 17 1 20 -8 4z"/>
<path d="M4045 1640 c-3 -6 1 -7 9 -4 18 7 21 14 7 14 -6 0 -13 -4 -16 -10z"/>
<path d="M3506 1402 c-30 -34 -37 -45 -17 -27 30 27 77 85 69 85 -2 0 -25 -26
-52 -58z"/>
<path d="M2514 1336 c11 -9 24 -16 30 -16 12 0 7 5 -24 19 -24 11 -24 11 -6
-3z"/>
<path d="M3420 1335 c-14 -8 -20 -14 -14 -15 5 0 19 7 30 15 24 18 16 19 -16
0z"/>
<path d="M3094 1244 c-18 -14 -18 -14 6 -3 31 14 36 19 24 19 -6 0 -19 -7 -30
-16z"/>
<path d="M1094 5014 c-49 -47 -82 -83 -72 -80 22 7 34 -5 125 -124 97 -128
106 -143 91 -158 -7 -7 -8 -12 -4 -12 5 0 45 32 90 72 44 40 82 73 84 74 4 3
-47 104 -52 104 -3 0 -2 -24 1 -52 4 -44 2 -58 -17 -80 -12 -16 -28 -28 -35
-28 -8 0 -35 27 -61 61 -37 48 -44 63 -33 70 23 14 41 10 67 -13 35 -32 24 -6
-33 75 -49 70 -63 80 -45 31 12 -30 6 -74 -10 -74 -16 0 -91 107 -85 122 6 16
56 48 75 48 7 0 25 -9 41 -21 16 -11 29 -18 29 -14 0 10 -53 85 -60 85 -4 0
-47 -39 -96 -86z"/>
<path d="M4725 5051 c-76 -46 -124 -135 -125 -229 0 -60 2 -66 35 -99 34 -34
38 -35 90 -31 68 6 115 40 163 118 73 121 19 260 -100 260 -18 0 -47 -8 -63
-19z m137 -28 c45 -40 2 -150 -98 -250 -41 -41 -60 -53 -84 -53 -42 0 -58 34
-42 88 25 84 146 232 189 232 9 0 25 -7 35 -17z"/>
<path d="M864 4781 c-87 -101 -96 -116 -67 -107 28 9 248 -214 240 -244 -3
-11 -2 -20 1 -19 4 0 40 39 79 86 l73 86 -22 36 c-11 20 -28 43 -36 51 -13 13
-14 13 -7 -5 25 -69 7 -155 -34 -155 -22 0 -115 105 -106 120 9 15 48 12 73
-6 37 -26 25 -5 -39 67 -64 72 -82 83 -53 32 17 -28 14 -83 -4 -83 -5 0 -29
24 -55 54 l-47 55 26 30 c29 35 66 40 102 15 36 -25 34 -13 -7 35 l-38 44 -79
-92z"/>
<path d="M5024 4862 c13 -21 -16 -68 -104 -172 -69 -81 -99 -110 -112 -107
-26 7 -22 -5 13 -39 l31 -29 -7 25 c-5 21 6 40 71 115 42 50 81 95 86 100 14
14 3 -51 -37 -215 -19 -74 -31 -137 -29 -139 3 -3 60 50 128 118 106 105 127
122 146 116 25 -8 23 -3 -14 48 -25 34 -35 35 -28 2 3 -21 -9 -38 -68 -97 -40
-40 -69 -64 -65 -53 13 37 55 230 55 252 0 22 -45 83 -61 83 -6 0 -8 -4 -5 -8z"/>
<path d="M616 4448 c-44 -71 -51 -93 -21 -68 17 14 4 23 158 -104 98 -81 108
-91 102 -115 -4 -14 -4 -24 -2 -21 10 10 137 202 137 207 0 9 -73 93 -77 89
-3 -2 3 -18 11 -35 9 -16 16 -44 16 -61 0 -32 -25 -90 -39 -90 -4 0 -61 46
-125 102 -113 98 -118 104 -113 135 3 18 4 33 2 33 -2 0 -24 -32 -49 -72z"/>
<path d="M5185 4395 c-82 -36 -158 -65 -167 -65 -24 0 -23 -10 8 -45 22 -26
24 -27 19 -8 -5 18 1 27 27 43 18 11 36 20 40 20 4 0 18 -17 32 -37 24 -35 25
-37 8 -65 -26 -44 -39 -53 -59 -37 -20 17 -17 9 22 -59 17 -28 34 -52 38 -52
5 0 6 4 3 9 -3 5 17 43 45 86 76 117 169 266 169 271 0 14 -51 -3 -185 -61z
m35 -54 c-18 -28 -33 -51 -34 -51 -1 0 -12 14 -25 30 l-22 31 53 23 c29 13 54
23 56 21 2 -2 -11 -26 -28 -54z"/>
<path d="M523 3469 c25 -20 27 -25 27 -100 0 -77 -1 -79 -25 -79 -23 0 -24 3
-27 77 -3 74 -4 77 -31 86 -36 12 -47 1 -19 -19 21 -14 22 -22 22 -177 0 -114
3 -158 11 -150 6 6 13 45 16 87 6 72 7 76 29 76 24 0 24 -1 24 -105 0 -105 12
-139 24 -67 3 20 6 112 6 204 0 155 -1 168 -19 178 -11 5 -30 10 -43 10 -23
-1 -23 -1 5 -21z"/>
<path d="M5620 3482 c0 -5 11 -17 25 -26 21 -14 25 -24 25 -66 l0 -50 -61 0
c-37 0 -58 -4 -54 -10 3 -5 31 -10 61 -10 l54 0 0 -45 c0 -48 14 -60 24 -22 3
12 6 66 6 119 0 105 5 96 -62 114 -10 3 -18 1 -18 -4z"/>
<path d="M280 3429 c0 -14 38 -29 74 -29 40 0 49 17 14 24 -49 10 -88 12 -88
5z"/>
<path d="M5400 3419 c0 -14 33 -18 90 -12 39 4 60 2 60 -5 0 -17 -76 -108
-120 -143 -42 -34 -47 -49 -9 -28 55 29 196 186 172 190 -27 5 -193 3 -193 -2z"/>
<path d="M305 3361 c-80 -5 -95 -8 -75 -16 31 -13 220 -4 220 10 1 12 -18 13
-145 6z"/>
<path d="M330 3320 c0 -5 -7 -10 -15 -10 -25 0 -55 -38 -55 -70 0 -62 79 -92
134 -49 44 35 34 85 -26 122 -32 20 -38 21 -38 7z m53 -51 c28 -44 -25 -95
-72 -69 -24 12 -29 58 -9 78 17 17 68 11 81 -9z"/>
<path d="M5481 3197 c9 -7 19 -36 23 -71 7 -61 15 -81 23 -58 3 8 27 12 73 12
83 0 105 7 89 26 -11 13 -8 48 6 87 7 16 -3 17 -111 17 -96 -1 -116 -3 -103
-13z m179 -40 c0 -46 -15 -57 -77 -57 l-53 0 0 45 0 45 65 0 65 0 0 -33z"/>
<path d="M270 2919 c0 -4 9 -9 20 -12 15 -4 20 -14 20 -40 0 -41 13 -54 60
-59 30 -3 35 -7 38 -31 l4 -29 -101 4 c-101 3 -125 -3 -73 -19 38 -11 388 -1
382 12 -3 6 -43 9 -99 6 -85 -3 -93 -1 -87 14 3 9 6 23 6 31 0 10 14 14 50 14
28 0 50 4 50 10 0 6 -39 9 -97 7 l-98 -2 -3 34 c-2 20 2 37 10 42 7 5 52 9
101 9 48 0 87 4 87 8 0 5 -61 8 -135 8 -74 -1 -135 -4 -135 -7z"/>
<path d="M5384 2891 c-2 -2 6 -9 19 -15 18 -9 23 -21 25 -64 2 -39 8 -54 23
-62 27 -15 221 -9 226 7 4 10 -21 11 -106 6 l-111 -6 0 56 0 56 108 3 c161 4
130 23 -39 23 -77 0 -142 -2 -145 -4z"/>
<path d="M5513 2705 c11 -7 20 -27 21 -44 2 -31 2 -31 -53 -32 -31 -1 -76 -1
-101 0 -40 1 -43 0 -25 -11 15 -9 71 -11 205 -9 102 1 187 5 189 7 12 12 -17
16 -99 15 l-92 -2 3 33 c4 43 -6 58 -39 58 -25 -1 -26 -2 -9 -15z"/>
<path d="M420 2702 c0 -4 -16 -14 -36 -21 -87 -31 -54 -130 44 -131 48 0 92
33 92 70 0 24 -42 70 -65 70 -8 0 -15 5 -15 10 0 6 -4 10 -10 10 -5 0 -10 -4
-10 -8z m54 -48 c20 -19 20 -34 0 -62 -22 -32 -78 -30 -100 3 -15 23 -15 27 0
50 19 29 75 35 100 9z"/>
<path d="M1207 1287 c4 -20 -11 -42 -77 -113 -121 -130 -128 -136 -151 -124
-37 20 -19 -8 35 -54 58 -50 72 -57 56 -27 -9 19 11 50 81 125 5 5 25 -6 47
-26 l39 -36 -45 -57 c-37 -47 -49 -56 -68 -51 -37 10 -28 -5 32 -53 50 -40 83
-51 55 -18 -17 21 164 256 197 257 32 0 27 11 -27 53 -55 41 -67 46 -49 18 9
-16 5 -27 -32 -74 l-43 -55 -39 31 c-21 16 -38 33 -38 36 0 3 19 28 41 54 34
40 46 47 65 43 13 -4 24 -4 24 -1 0 6 -89 89 -100 93 -4 1 -5 -8 -3 -21z"/>
<path d="M4712 1280 c-19 -12 -40 -37 -49 -57 -53 -129 104 -315 231 -273 44
14 93 69 101 113 27 143 -165 289 -283 217z m95 -42 c49 -29 131 -125 144
-167 14 -46 1 -78 -36 -87 -39 -10 -80 13 -136 74 -86 94 -110 166 -67 196 25
18 46 14 95 -16z"/>
<path d="M4450 1053 c-55 -28 -130 -77 -130 -85 0 -4 10 -7 22 -5 18 2 36 -20
101 -122 65 -103 78 -129 73 -153 -6 -33 -10 -34 77 25 79 53 99 86 94 159 -8
128 -141 229 -237 181z m66 -44 c18 -11 49 -42 69 -68 67 -92 77 -148 34 -187
-19 -17 -20 -17 -38 2 -40 42 -163 245 -157 259 8 21 53 19 92 -6z"/>
<path d="M1455 905 c-71 -58 -143 -109 -158 -113 l-29 -7 38 -27 c39 -28 56
-30 34 -3 -11 13 -10 19 5 35 28 31 51 33 89 8 39 -25 41 -31 25 -76 -9 -27
-15 -31 -35 -26 -13 3 -24 4 -24 1 0 -5 113 -77 121 -77 2 0 4 21 5 48 1 38
45 245 70 325 3 9 2 17 -3 17 -4 0 -66 -48 -138 -105z m45 -36 c-19 -74 -17
-72 -50 -52 -16 9 -30 20 -30 24 0 10 82 80 87 75 3 -2 -1 -24 -7 -47z"/>
<path d="M4245 928 c-11 -6 -29 -16 -41 -23 l-20 -13 21 -126 c12 -69 19 -126
16 -125 -3 0 -42 41 -86 90 -44 49 -85 89 -92 89 -18 0 -83 -32 -83 -42 0 -4
6 -5 14 -2 19 7 34 -18 96 -164 51 -119 52 -123 35 -142 -22 -25 -13 -25 42
-2 47 19 55 32 20 32 -25 0 -32 12 -94 155 l-34 80 68 -75 c150 -165 141 -157
149 -136 4 10 -4 87 -19 170 -14 83 -25 152 -23 153 1 1 32 -55 69 -125 62
-120 65 -129 50 -145 -27 -27 1 -21 62 14 57 32 83 56 48 45 -26 -8 -38 6
-118 148 -56 100 -66 123 -56 138 13 20 5 22 -24 6z"/>
<path d="M1761 882 c9 -15 -1 -42 -61 -155 -65 -122 -76 -137 -99 -137 -22 -1
-16 -6 34 -35 68 -39 98 -46 71 -17 -15 18 -12 27 54 162 60 121 73 141 90
137 35 -9 21 7 -30 36 -59 32 -75 34 -59 9z"/>
<path d="M1920 810 c0 -5 5 -10 10 -10 20 0 9 -40 -46 -166 -58 -132 -67 -146
-91 -137 -7 3 -13 1 -13 -5 0 -15 143 -72 180 -72 90 0 162 93 163 213 0 77
-19 102 -113 149 -82 40 -90 43 -90 28z m117 -58 c23 -15 33 -60 23 -112 -26
-136 -101 -226 -155 -186 -19 14 -18 19 39 160 32 80 64 146 70 146 6 0 16 -4
23 -8z"/>
<path d="M3855 746 l-30 -14 25 -10 c20 -8 32 -30 63 -114 51 -141 55 -170 28
-197 -28 -28 -66 -27 -86 2 -9 12 -34 78 -55 146 -38 117 -39 125 -24 143 21
22 21 22 -47 2 -71 -21 -75 -24 -48 -38 15 -8 28 -29 39 -71 44 -152 53 -177
77 -205 20 -24 33 -30 64 -30 56 0 95 23 109 64 13 41 6 71 -45 207 -27 70
-33 95 -25 110 13 23 -1 25 -45 5z"/>
<path d="M2282 663 c-66 -32 -112 -119 -112 -211 0 -96 50 -152 136 -152 88 0
146 75 152 196 5 88 -19 143 -72 168 -42 20 -62 20 -104 -1z m99 -24 c19 -19
21 -29 16 -98 -5 -79 -34 -170 -63 -202 -21 -23 -61 -25 -86 -2 -55 50 27 323
97 323 8 0 25 -10 36 -21z"/>
<path d="M3561 656 c-1 -16 -7 -17 -43 -12 -93 14 -153 -55 -153 -174 0 -158
113 -246 236 -184 46 23 53 39 42 94 -8 39 -7 52 3 61 28 23 13 26 -48 11 -67
-16 -97 -32 -60 -32 26 0 40 -23 44 -75 2 -33 -1 -41 -21 -51 -50 -25 -91 14
-116 111 -22 87 -20 180 5 205 11 11 30 20 41 20 21 0 89 -62 89 -81 0 -5 5
-9 10 -9 11 0 7 23 -16 95 -6 22 -12 32 -13 21z"/>
<path d="M2550 624 c1 -5 7 -19 14 -32 10 -20 9 -45 -9 -155 -22 -140 -28
-157 -51 -157 -8 0 -14 -4 -14 -10 0 -5 8 -10 19 -10 10 0 34 -3 52 -7 l34 -6
-19 22 c-19 21 -19 27 -7 129 8 59 16 113 18 120 3 7 27 -36 53 -95 61 -140
92 -203 101 -203 6 0 14 69 25 243 6 81 10 101 26 110 29 18 21 27 -23 27 -36
0 -40 -2 -29 -15 14 -17 15 -121 2 -170 -7 -26 -10 -22 -44 51 -20 44 -43 96
-52 117 -12 29 -21 37 -40 37 -13 0 -31 3 -40 6 -9 3 -16 2 -16 -2z"/>
<path d="M2970 593 c-60 -22 -104 -105 -104 -198 0 -79 18 -122 67 -159 34
-25 116 -28 162 -5 28 13 30 19 30 68 1 40 5 57 20 67 10 8 17 15 14 17 -2 2
-35 2 -72 -1 -63 -4 -66 -6 -48 -19 17 -11 21 -25 21 -68 0 -49 -2 -55 -24
-61 -68 -17 -99 36 -99 166 0 96 15 155 45 171 35 19 66 2 98 -54 l30 -52 0
68 c0 60 -11 88 -23 55 -3 -10 -11 -10 -39 0 -36 13 -54 14 -78 5z"/>
</g>
</svg>
